<svg width="460" height="460" xmlns="http://www.w3.org/2000/svg">

 <g>
  <title>background</title>
  <rect fill="none" id="canvas_background" height="462" width="462" y="-1" x="-1"/>
 </g>
 <g>
  <title>Layer 1</title>
  <g id="svg_1" fill="#000000">
   <path id="svg_2" fill="#DDDDDD" d="m275.26393,96.58923c-1.06226,15.95997 -8.20081,29.41576 -15.06906,44.08077c12.20489,-8.13468 25.44335,-9.63082 38.53118,-11.29605c15.98313,-2.03365 29.90677,-8.66336 42.87955,-17.76228c1.60684,-1.127 3.17075,-3.09386 5.23047,-1.99615c2.02219,1.07767 1.56354,3.55642 1.40836,5.47775c-0.96219,11.91222 -4.53998,23.12308 -9.41169,33.95962c-7.77661,17.29809 -18.88787,32.34073 -32.00534,46.46492c22.83091,-2.991 44.00193,-9.07827 62.11676,-22.23767c2.05017,0.96803 2.4199,2.35438 1.71357,3.24424c-4.46448,5.62422 -3.94635,12.5306 -5.12384,18.99057c-4.07105,22.33561 -12.97233,42.5773 -26.77204,60.55486c-2.62048,3.41385 -2.2099,5.08682 0.69934,7.7402c4.53836,4.13919 8.75589,8.65299 12.8682,13.22498c1.58511,1.76233 3.64145,4.00796 2.06824,6.64996c-1.4983,2.51612 -4.25684,1.51422 -6.42466,1.05149c-6.82864,-1.45768 -13.72049,-2.8429 -19.53759,-7.12537c-0.77976,-0.57407 -1.60196,-1.15894 -2.95389,-0.82437c0.72171,7.82565 4.96869,14.72137 5.9375,23.45871c-7.46357,-3.49829 -12.08838,-8.97205 -16.87241,-15.10556c-4.78296,10.57589 -12.8103,17.13623 -22.07736,22.38101c-1.86838,1.0574 -2.18811,2.80987 -2.78125,4.51013c-5.02075,14.39224 -11.6105,27.84131 -22.03485,39.2648c-25.52686,27.97351 -64.08213,33.61743 -94.41281,7.56439c-17.57012,-15.09216 -27.86418,-34.34607 -32.77756,-56.84878c-2.50115,-11.4549 -4.07317,-22.92722 -3.81728,-34.63007c0.08275,-3.78381 -1.71583,-4.99731 -5.20256,-4.85718c-7.00418,0.28147 -12.52307,7.74369 -11.7525,15.70139c0.85872,8.8681 4.97436,15.71277 12.19663,20.80215c1.70266,1.1998 4.59271,2.38437 2.79202,4.84665c-1.57846,2.15842 -4.26529,0.93464 -6.32674,-0.32867c-11.94043,-7.31729 -20.9064,-25.77896 -11.29579,-40.27576c0.64297,-0.96985 1.14537,-2.02771 0.89551,-3.6102c-5.16902,-2.60449 -10.0422,-5.83188 -13.53806,-10.97349c-4.87677,-7.17267 -5.71823,-15.10915 -5.31044,-23.37865c1.36222,-27.62375 13.28821,-51.95535 24.00295,-76.655c0.71504,-1.64828 1.6437,-3.3099 4.22452,-4.08822c3.41596,4.83551 2.30178,10.5859 2.64034,15.93823c0.34368,5.43289 0.07589,10.90446 0.69101,16.57416c4.36072,-6.01683 8.77846,-11.72008 13.74018,-16.95819c8.80391,-9.29435 18.38307,-17.81577 26.80069,-27.51536c8.42198,-9.70462 16.42885,-19.62674 22.23395,-31.16982c1.07701,-2.14155 1.71069,-4.77726 5.25421,-5.42497c2.3796,13.23224 1.82873,26.37707 0.35385,40.38064c5.36754,-4.0459 9.49985,-8.29456 14.70865,-11.19011c13.94419,-7.7515 29.21374,-13.0111 42.25155,-22.4428c4.17069,-3.01713 8.19519,-6.23577 12.31464,-9.32474c1.5242,-1.1429 2.70023,-3.53533 4.98089,-2.56561c2.13471,0.90766 1.91559,3.27719 1.96296,5.72345m-169.58984,116.05258c-1.25738,6.56029 -1.88992,13.17307 -1.46753,19.85096c0.33083,5.23043 1.5775,10.32339 4.9355,14.37748c5.58015,6.73682 12.10984,9.96958 21.76795,9.02662c6.31043,-0.61615 6.90745,-3.01233 7.84157,-7.54255c3.705,-17.96798 9.52913,-35.2946 21.96886,-49.07664c6.53456,-7.23969 9.34183,-13.76126 5.45524,-22.9406c-1.23257,-2.91109 -0.98026,-6.36665 1.81887,-9.30436c2.18525,2.81855 2.7176,5.71604 3.29349,8.64434c2.34436,11.92085 7.22383,22.76609 14.15592,32.70421c13.48232,19.3288 32.44146,30.60701 54.60524,37.25563c5.18183,1.55443 9.58634,1.38739 13.62128,-2.84216c3.00153,-3.14632 5.78159,-6.42719 8.45676,-9.83487c1.25659,-1.60065 2.60953,-4.45989 4.98965,-2.76044c2.38217,1.70093 0.73465,4.26956 -0.58252,6.21016c-2.10086,3.09525 -4.34362,6.09422 -7.0957,9.92673c8.19019,0.27576 15.35886,-0.28534 22.41635,0.79623c3.25543,0.49893 5.97653,-0.01274 8.87085,-1.84967c5.79944,-3.68068 12.10608,-4.06202 18.67826,-1.76437c6.82974,2.38768 13.15801,5.64026 18.84399,10.07727c2.14004,1.66995 3.88473,1.72958 5.51736,-0.43814c2.69706,-3.58122 5.48023,-7.11148 7.95453,-10.84394c6.47745,-9.77108 10.94028,-20.56365 14.93122,-31.49133c3.09152,-8.46481 4.86413,-17.33148 5.57647,-27.72304c-16.13684,11.14504 -33.97409,13.20934 -51.33996,16.89844c-4.34351,0.9227 -8.92508,1.49127 -12.72751,4.17821c-1.40137,0.99025 -2.51496,3.22583 -4.56995,1.33028c-2.12002,-1.95551 -0.47668,-3.61483 0.8288,-5.13918c6.69656,-7.81915 14.36047,-14.75366 20.69873,-22.91247c11.23074,-14.45662 20.24515,-30.09208 25.6579,-47.64803c1.08996,-3.53528 2.32684,-7.18666 1.354,-11.70553c-2.65286,1.5023 -4.94684,2.74356 -7.18457,4.07901c-7.90146,4.71542 -16.08334,8.80996 -25.22369,10.45475c-8.67395,1.56087 -17.41944,2.7231 -26.09552,4.27316c-10.16184,1.81556 -19.66056,5.12659 -26.76728,13.19687c-0.92926,1.05527 -1.93747,2.01165 -3.4129,1.3731c-1.65594,-0.71672 -1.91171,-2.25147 -1.53458,-3.81333c0.38901,-1.61114 0.85166,-3.23489 1.53193,-4.74022c3.42501,-7.57878 6.95849,-15.10846 10.40167,-22.67915c3.08337,-6.77961 5.00747,-13.90135 6.54187,-21.50204c-5.7186,3.98434 -10.97199,7.72563 -16.30808,11.34502c-10.25546,6.95615 -21.83528,11.33851 -32.83538,16.85415c-9.41994,4.72332 -18.52625,9.99612 -22.4974,20.74118c-0.42643,1.15381 -1.2725,1.97661 -2.62677,1.9386c-1.59787,-0.04486 -2.27113,-1.13594 -2.73782,-2.48269c-0.62282,-1.79718 -0.42377,-3.56793 -0.17483,-5.41551c1.41169,-10.47818 3.42503,-20.9293 2.07798,-31.63956c-1.4414,0.1945 -1.58978,1.33565 -2.08714,2.1105c-4.58722,7.14656 -9.62367,13.9427 -15.03563,20.50137c-10.08172,12.21789 -22.3089,22.34175 -32.8475,34.09056c-7.35263,8.19698 -14.67356,16.5164 -14.33245,28.66025c0.03801,1.35324 -0.28901,3.01474 -2.7341,4.11119c-4.41835,-6.2086 -0.93228,-13.42694 -2.24394,-19.91281c-1.37842,-6.81594 -0.97487,-13.99222 -1.42352,-22.38617c-7.78581,18.68927 -15.26641,35.92375 -18.90597,55.38253m139.2897,147.44164c18.68325,-11.90854 30.29583,-29.11517 36.5979,-49.97638c1.68884,-5.59033 4.58825,-9.14624 9.66482,-11.57443c5.61444,-2.68555 10.39063,-6.51868 14.13443,-11.58292c8.2395,-11.14551 3.96924,-27.5332 -8.46911,-32.31885c-2.41526,-0.92929 -4.66391,-1.57952 -6.63623,1.12055c-6.83432,9.35611 -15.71024,16.69403 -24.61393,23.89422c-12.49865,10.10737 -26.21411,14.90274 -42.18162,8.22168c-3.48863,-1.45971 -7.33615,-2.19354 -11.08986,-2.85757c-5.92185,-1.04758 -7.84345,0.49802 -10.1593,6.0549c-2.94455,7.06537 -1.96715,13.22367 3.00628,18.95203c1.46868,1.69159 3.70992,3.87033 1.07766,5.94751c-2.42388,1.91275 -4.88201,0.21991 -6.45755,-1.83841c-4.33765,-5.66678 -8.181,-11.50913 -4.60091,-19.1864c0.72804,-1.56128 0.72273,-3.46451 1.20189,-5.97809c-21.90857,10.09326 -38.08612,-0.21887 -53.59544,-14.57889c-0.2672,1.9307 -0.52686,2.72931 -0.46288,3.50107c1.96278,23.67181 8.37868,45.77896 23.47678,64.63406c9.349,11.67536 20.75282,20.65335 35.63731,24.16776c15.03566,3.55011 29.40358,1.60791 43.46976,-6.60184m-93.85045,-133.00284c-4.03467,8.80768 -6.00522,18.11734 -7.44806,28.32608c4.1457,-0.9916 7.49194,-1.81308 10.84839,-2.59051c7.46972,-1.73012 8.59778,-5.7 3.61154,-11.83937c-1.44023,-1.77332 -3.7,-1.30768 -5.138,-2.63953c1.23343,-5.03186 2.44693,-5.00475 9.70827,0.13699c5.38237,-5.84207 9.78782,-5.97464 15.57807,-0.40693c2.5192,2.42236 4.72567,5.23338 7.47964,7.33703c11.08265,8.46567 20.27987,8.98828 25.29209,-6.13327c-17.67459,-10.22931 -30.79062,-25.06296 -39.61355,-44.37211c-9.40453,9.40434 -15.33377,20.04358 -20.31839,32.18162m17.80754,14.54975c-1.23778,2.87216 -2.06168,6.78306 0.08941,8.41627c3.2922,2.49959 7.79836,1.06134 12.85097,0.64497c-3.24311,-3.57958 -5.79069,-6.54768 -8.52575,-9.3316c-1.05719,-1.07608 -2.54056,-1.71588 -4.41463,0.27036m44.16662,7.64703c-1.48521,3.12662 -4.22187,5.17819 -6.32385,8.09341c4.45122,-1.83242 8.90244,-3.66485 14.49823,-5.96847c-3.43693,-1.21709 -3.86438,-6.39911 -8.17438,-2.12494m35.67298,14.18564c-4.89539,0.37613 -5.48325,1.54516 -3.24268,6.52157c2.18317,0.10868 3.65277,-1.24249 5.11576,-2.5737c2.34527,-2.13406 1.57388,-3.29059 -1.87308,-3.94787m-76.55004,2.746c-3.0621,-3.05927 -5.10403,-0.39679 -7.58985,1.11435c1.09622,2.9985 3.25506,4.12802 6.10424,5.07623c0.54361,-2.06567 0.99988,-3.79947 1.48561,-6.19058m63.54831,3.1694c-0.22111,-1.18219 1.05791,-2.43173 -0.25851,-3.76275c-2.45399,1.20956 -4.89294,2.3576 -6.19098,5.62799c2.52696,0.36804 5.19978,4.91598 6.44949,-1.86524m-48.8545,4.05503c0.6412,-3.7696 -2.25968,-3.82105 -4.5783,-4.78495c-1.25462,2.26389 -1.58332,4.16843 -0.3448,6.06189c1.7887,0.44876 3.07266,-0.3901 4.9231,-1.27694z"/>
   <path id="svg_3" fill="#DDDDDD" d="m299.9271,110.49283c-0.5541,1.53894 -0.38464,3.11159 -2.50686,3.61342c-2.30951,-1.41071 -1.91867,-3.62445 -1.22687,-5.8776c1.49661,-4.87407 5.13736,-8.16032 8.88373,-11.16629c8.43216,-6.76568 18.20239,-11.68494 26.36334,-18.85501c0.90356,-0.79388 2.00321,-1.20174 3.62967,-0.44417c2.79962,11.82622 -1.35336,21.85546 -9.77408,29.94892c-6.27893,6.0349 -13.35489,11.57018 -23.88366,12.03828c2.04598,-4.44515 5.46212,-5.22008 8.28011,-6.62782c7.2996,-3.64654 13.41398,-8.5725 17.92023,-15.45889c2.44236,-3.73234 3.29593,-7.81236 3.0026,-12.65928c-9.7511,9.01383 -24.28617,11.90872 -30.68821,25.48844z"/>
   <path id="svg_4" fill="#DDDDDD" d="m169.26489,107.47797c-2.9641,5.61106 -5.48007,11.05892 -9.7927,15.34892c-0.46936,0.46689 -0.83648,1.03883 -1.31765,1.49116c-2.75785,2.59246 -6.39678,4.92756 -9.71494,3.49027c-3.55997,-1.54202 -2.97062,-6.00669 -2.38849,-9.43128c2.32872,-13.69981 11.11451,-23.01143 21.68338,-30.94775c2.8526,-2.14207 4.65286,-1.10538 4.56131,2.59013c-0.14456,5.83449 -1.17921,11.51871 -3.03091,17.45855m-3.01225,-13.26945c-8.6148,8.16029 -16.51709,16.68017 -15.7376,30.82715c6.14346,-5.57989 10.27991,-11.2902 13.41351,-17.73074c2.84885,-5.85528 3.60848,-9.80771 2.32409,-13.09641z"/>
   <path id="svg_5" fill="#DDDDDD" d="m213.65828,339.13948c7.69244,-0.7482 13.63153,-4.2533 19.03808,-8.89963c1.21875,-1.04736 2.57414,-2.75168 4.22698,-1.00186c1.8925,2.00351 -0.14536,3.22571 -1.39273,4.48843c-11.56107,11.70353 -28.33022,13.2143 -41.94544,3.75409c-1.78067,-1.23727 -3.24045,-2.76293 -3.81593,-5.13351c2.76611,-2.112 4.526,-0.17938 6.26661,1.12735c5.10933,3.83572 10.81559,5.75757 17.62243,5.66513z"/>
  </g>
 </g>
</svg>